<?xml version="1.0" standalone="no"?>
<!DOCTYPE svg PUBLIC "-//W3C//DTD SVG 1.1//EN" "http://www.w3.org/Graphics/SVG/1.1/DTD/svg11.dtd" >
<!--
2013-9-30: Created.
-->
<svg>
<metadata>
Created by iconfont
</metadata>
<defs>

<font id="iconfont" horiz-adv-x="1024" >
  <font-face
    font-family="iconfont"
    font-weight="500"
    font-stretch="normal"
    units-per-em="1024"
    ascent="896"
    descent="-128"
  />
    <missing-glyph />
    
    <glyph glyph-name="x" unicode="x" horiz-adv-x="1001"
d="M281 543q-27 -1 -53 -1h-83q-18 0 -36.5 -6t-32.5 -18.5t-23 -32t-9 -45.5v-76h912v41q0 16 -0.5 30t-0.5 18q0 13 -5 29t-17 29.5t-31.5 22.5t-49.5 9h-133v-97h-438v97zM955 310v-52q0 -23 0.5 -52t0.5 -58t-10.5 -47.5t-26 -30t-33 -16t-31.5 -4.5q-14 -1 -29.5 -0.5
t-29.5 0.5h-32l-45 128h-439l-44 -128h-29h-34q-20 0 -45 1q-25 0 -41 9.5t-25.5 23t-13.5 29.5t-4 30v167h911zM163 247q-12 0 -21 -8.5t-9 -21.5t9 -21.5t21 -8.5q13 0 22 8.5t9 21.5t-9 21.5t-22 8.5zM316 123q-8 -26 -14 -48q-5 -19 -10.5 -37t-7.5 -25t-3 -15t1 -14.5
t9.5 -10.5t21.5 -4h37h67h81h80h64h36q23 0 34 12t2 38q-5 13 -9.5 30.5t-9.5 34.5q-5 19 -11 39h-368zM336 498v228q0 11 2.5 23t10 21.5t20.5 15.5t34 6h188q31 0 51.5 -14.5t20.5 -52.5v-227h-327z" />
    

    
    <glyph glyph-name="youshang" unicode="&#58884;" d="M707.584 20.48l-58.368 58.368q-40.96 40.96-94.208 93.696t-113.664 112.128-116.224 114.688-102.4 101.376-72.192 71.68q-17.408 16.384-20.992 36.352t5.12 36.352 27.136 27.648 45.056 11.264l475.136 0q62.464 0 99.328-36.352t36.864-93.696l0-465.92q0-30.72-10.752-51.712t-27.136-30.208-35.84-6.144-36.864 20.48z"  horiz-adv-x="1024" />

    
    <glyph glyph-name="zuoxia" unicode="&#58885;" d="M241.664 792.576l39.936-39.936q26.624-26.624 62.464-61.952t77.824-77.312 86.016-85.504 87.552-87.04 82.432-81.408 70.144-68.608 50.688-50.176q17.408-17.408 20.992-36.864t-5.12-36.352-27.136-28.16-45.056-11.264q-122.88 0-241.664-1.024t-239.616-1.024q-30.72 0-55.296 10.752t-41.472 29.184-26.112 43.52-9.216 52.736l0 461.824q0 30.72 10.752 52.224t27.648 30.72 36.864 6.144 37.376-20.48z"  horiz-adv-x="1024" />

    
    <glyph glyph-name="youxia" unicode="&#58886;" d="M772.096 652.288q17.408 17.408 39.424 22.528t40.96-2.048 31.744-26.624 12.8-50.176l0-461.824q0-27.648-9.216-52.224t-25.6-43.008-38.912-28.672-49.152-10.24l-490.496 0q-26.624 0-43.52 13.312t-23.04 32.768-1.024 41.472 22.528 39.424q25.6 25.6 70.144 69.12t98.304 96.256 110.592 109.056 107.52 105.984 90.112 88.576 56.832 56.32z"  horiz-adv-x="1024" />

    
    <glyph glyph-name="fenyeshangyiye" unicode="&#58880;" d="M889.1914-143.2978c0-5.4016-2.8621-10.6404-7.9217-13.44-5.0616-2.7996-11.0193-2.4453-15.5955 0.426L191.0886 266.5838c-4.3295 2.7126-7.1997 7.5305-7.1997 13.014s2.8733 10.3014 7.1987 13.014L865.6732 715.5085c4.5773 2.8703 10.5339 3.2246 15.5955 0.426 5.0596-2.8006 7.9217-8.0384 7.9217-13.44V-143.29779200000007L889.1914-143.2978z"  horiz-adv-x="1024" />

    
    <glyph glyph-name="huifu" unicode="&#58900;" d="M953.42206 343.73713c0 0-237.390665 226.934522-390.942877 347.904665l-1.786693-208.374818c0 0-337.139483-38.350446-425.979858-279.006482 0 0-47.77919-112.448048 19.331277-243.714697 0 0-8.566096 106.531292 78.383208 230.81183 0 0 86.948281 106.787118 328.265372 53.239552l-1.730411-205.057259C586.910619 39.53992 953.42206 343.73713 953.42206 343.73713L953.42206 343.73713zM953.42206 343.73713"  horiz-adv-x="1024" />

    
    <glyph glyph-name="wenjianjiadakaiicon" unicode="&#58893;" d="M861.168959-32.054675c0-30.888498-25.060769-55.838749-55.891961-55.838749L107.04448-87.893424l97.786117 460.81934c0 30.858822 24.90011 55.867402 55.731302 55.867402l642.498146 0c30.832216 0 55.786561-25.007557 55.786561-55.867402L861.168959-32.054675 861.168959-32.054675zM218.723002 470.709987l628.446106 0 0 54.852282c0 30.858822-25.059745 55.866379-55.838749 55.866379l-335.143013 0 0 50.628074c0 30.806633-25.007557 55.838749-55.838749 55.838749L120.99112 687.895471c-30.832216 0-55.838749-25.032116-55.838749-55.838749l0-664.110373 97.67867 446.8727C162.831041 445.676847 187.890786 470.709987 218.723002 470.709987L218.723002 470.709987zM218.723002 470.709987"  horiz-adv-x="1024" />

    
    <glyph glyph-name="bold" unicode="&#58911;" d="M707.872 327.36c37.504 44.544 60.128 102.016 60.128 164.64 0 141.152-114.848 256-256 256l-320 0 0-896 384 0c141.152 0 256 114.848 256 256 0 92.96-49.792 174.496-124.128 219.36zM384 620l101.504 0c55.968 0 101.504-57.408 101.504-128s-45.536-128-101.504-128l-101.504 0 0 256zM543.008-20l-159.008 0 0 256 159.008 0c58.464 0 106.016-57.408 106.016-128s-47.552-128-106.016-128z"  horiz-adv-x="1024" />

    
    <glyph glyph-name="xuanze" unicode="&#58902;" d="M263.568884 685.813043 263.568884 18.78727 435.232592 190.328181 559.859008-49.84997 650.384767-3.021431 530.399045 228.334797 762.166643 228.334797Z"  horiz-adv-x="1024" />

    
    <glyph glyph-name="tiaoxingma" unicode="&#59092;" d="M814.461729 676.987572M18.646281-127.999972l154.377255 0L173.023535 896.000013 18.646281 896.000013 18.646281-127.999972zM223.337993-127.999972l72.590174 0L295.928168 896.000013l-72.590174 0L223.337993-127.999972zM390.338738-127.999972l91.366339 0L481.705076 896.000013l-91.366339 0L390.338738-127.999972zM651.850748-127.999972l157.612662 0L809.46341 896.000013 651.850748 896.000013 651.850748-127.999972zM850.31244-127.999972l59.979819 0L910.292259 896.000013l-59.979819 0L850.31244-127.999972zM1004.780175 896.000013 1004.780175-127.999972 1212.730645-127.999972 1212.730645 896.000013 1004.780175 896.000013z"  horiz-adv-x="1229" />

    
    <glyph glyph-name="zuoshang" unicode="&#59189;" d="M240.64 21.504q-17.408-17.408-36.864-20.48t-36.352 6.656-28.16 30.72-11.264 51.712l0 461.824q0 27.648 9.728 52.736t26.112 43.52 38.912 29.184 48.128 10.752q59.392 0 122.88-0.512t126.976-0.512 124.416-0.512 116.224-0.512q26.624 0 45.056-11.264t27.136-27.648 5.632-36.352-20.48-36.352q-19.456-19.456-50.688-50.176t-70.144-69.12-82.432-81.92-87.552-87.04-86.528-85.504-77.824-77.312-62.464-61.952-40.448-39.936z"  horiz-adv-x="1024" />

    
    <glyph glyph-name="icons06" unicode="&#59037;" d="M538.3 610.6c40.3-24.4 75-58.8 105.5-104.5l-31.8-12.7c-18.7-7.5-30.6-25.3-30.4-45.4s12.5-37.7 31.4-44.8l199.8-74.9c5.5-2.1 11.2-3.1 17-3.1 7.5 0 15 1.7 21.8 5.2 12 6.1 21 17 24.7 29.9l49.9 174.8c5.1 17.9-0.3 36.7-14.1 49.2-13.8 12.5-33.1 15.9-50.4 9l-39-15.6c-71.5 72-144.5 123.9-217.1 154.6-63.9 27-127.6 37.8-189.5 31.9-106.7-10-170.3-66.1-172.9-68.5l-91.6-82.2 120.1 27.1c104.8 23.9 194.5 13.7 266.6-30zM583.3 672.3c68.8-29.6 138.9-81.5 208.3-154.3l14.9-15.7 49.4 19.8-36.5-127.9-146.2 54.8 63.6 25.4-18 31.9c-40.4 71.5-88.6 123.5-147.3 159.1-20.9 12.6-42.8 23-65.8 31 25.6-4.8 51.5-12.9 77.6-24.1zM387.3 536.2c-20.6 6.2-42.4-1.6-54.3-19.5l-273-409.5c-9.9-14.9-10.8-33.9-2.4-49.7s24.8-25.5 42.7-25.5h273c26.7 0 48.4 21.7 48.4 48.4v409.5c0 21.4-13.8 40.1-34.4 46.3zM357.7 96h-228.2l228.2 342.3v-342.3zM938.4 120.6l-409.5 273c-14.9 9.9-33.9 10.8-49.7 2.4-15.8-8.4-25.6-24.8-25.6-42.7v-273c0-26.7 21.7-48.4 48.4-48.4h409.5c21.5 0 40.1 13.8 46.3 34.4 6.3 20.6-1.5 42.4-19.4 54.3zM517.7 96v228.2l342.3-228.2h-342.3z"  horiz-adv-x="1024" />

    
    <glyph glyph-name="icons07" unicode="&#59038;" d="M135.7 360.3c3.7-12.9 12.7-23.9 24.7-29.9 6.8-3.4 14.3-5.2 21.8-5.2 5.7 0 11.5 1 17 3.1l199.8 74.9c18.9 7.1 31.2 24.6 31.4 44.8 0.2 20.1-11.7 38-30.4 45.5l-31.8 12.7c30.4 45.7 65.2 80.1 105.5 104.5 72.1 43.7 161.8 53.8 266.7 30.1l120.1-27.1-91.6 82.2c-2.7 2.4-66.3 58.4-172.9 68.5-61.9 5.8-125.6-4.9-189.5-31.9-72.6-30.7-145.6-82.7-217.1-154.6l-39 15.6c-17.3 6.9-36.6 3.5-50.4-9-14-12.7-19.4-31.5-14.2-49.4l49.9-174.8zM205.4 502.3l14.9 15.7c69.4 72.8 139.5 124.7 208.3 154.3 26.1 11.2 52 19.3 77.6 24.1-23-8-45-18.4-65.8-31-58.7-35.6-106.9-87.6-147.3-159.1l-18-31.9 63.6-25.4-146.2-54.8-36.5 127.8 49.4-19.7zM951.8 107.2l-273 409.5c-11.9 17.9-33.7 25.7-54.3 19.5-20.6-6.2-34.4-24.8-34.4-46.3v-409.5c0-26.7 21.7-48.4 48.4-48.4h273c17.9 0 34.2 9.8 42.7 25.6s7.6 34.7-2.4 49.6zM654.2 96v342.3l228.2-342.3h-228.2zM532.6 396c-15.8 8.4-34.8 7.5-49.7-2.4l-409.5-273c-17.9-11.9-25.7-33.7-19.5-54.3 6.2-20.6 24.8-34.4 46.3-34.4h409.5c26.7 0 48.4 21.7 48.4 48.4v273c0.1 17.9-9.7 34.3-25.5 42.7zM494.2 96h-342.3l342.3 228.2-0-228.2z"  horiz-adv-x="1024" />

    
    <glyph glyph-name="shujuku" unicode="&#58901;" d="M429.056939-35.690618c-204.353225 0-370.015242 69.02405-370.015242 154.173358 0 2.960425-0.174985 6.577812 0 9.541307-0.35918 0.25685 0.355087-0.25685 0 0L59.041698 218.271468c66.630536-65.152882 207.278857-110.066815 370.015242-110.066815 43.236733 0 84.914972 3.170203 124.059504 9.049097 1.067308 14.352893 3.327792 28.372188 6.656607 41.97295-40.646746-6.39771-84.693938-9.908674-130.71611-9.908674-204.353225 0-370.015242 69.026096-370.015242 154.173358 0 2.960425-0.077771 6.574742 0 9.53926l0 0 0 90.249467c66.630536-65.152882 207.278857-110.066815 370.015242-110.066815s303.384705 44.913932 370.015242 110.066815l0-48.620347c3.41068 0.134053 6.833639 0.222057 10.278087 0.222057 10.4367 0 20.723997-0.638543 30.834262-1.848091L840.184531 724.897064l0 0C809.060673 818.098769 634.028241 889.34851 429.056939 889.34851S49.053206 818.098769 17.929348 724.897064l0 0 0-637.248585 0 0c31.124881-93.201705 200.039989-169.764452 411.128615-167.521365 63.011102 0.669242 124.752282 7.766894 178.127933 19.801998-8.662287 11.325953-18.448164 25.438369-25.15696 38.135552C535.404036-30.767492 483.611439-35.690618 429.056939-35.690618zM429.056939 848.23616c204.353225 0 370.015242-69.026096 370.015242-154.173358S633.411187 539.889443 429.056939 539.889443 59.041698 608.915539 59.041698 694.062801 224.703715 848.23616 429.056939 848.23616zM59.041698 498.038266 59.041698 608.843908c66.630536-65.152882 207.278857-110.066815 370.015242-110.066815s303.384705 44.913932 370.015242 110.066815l0-110.805642c-0.355087-0.25685 0.35918 0.25685 0 0 0.394996-2.919493 0-6.579859 0-9.53926 0-85.146239-165.662017-154.173358-370.015242-154.173358S59.041698 403.351744 59.041698 488.497982C59.041698 491.458407 58.646702 495.118773 59.041698 498.038266 58.682517 498.294093 59.396785 497.780393 59.041698 498.038266zM799.073204 313.768449c-113.52866 0-205.563796-92.035136-205.563796-205.563796 0-113.530706 92.035136-205.563796 205.563796-205.563796 113.530706 0 205.563796 92.03309 205.563796 205.563796C1004.637 221.733313 912.603911 313.768449 799.073204 313.768449zM799.073204-56.246793c-90.824565 0-164.451446 73.626881-164.451446 164.451446s73.626881 164.451446 164.451446 164.451446 164.451446-73.626881 164.451446-164.451446S889.897769-56.246793 799.073204-56.246793zM819.629379 210.986551l-41.11235 0 0-82.225723-82.225723 0 0-41.11235 82.225723 0 0-82.225723 41.11235 0 0 82.225723 82.225723 0 0 41.11235-82.225723 0L819.629379 210.986551z"  horiz-adv-x="1024" />

    
    <glyph glyph-name="juzhongduiqi" unicode="&#59198;" d="M307.78134 785.914766l408.889621 0 0-81.777515L307.78134 704.137251 307.78134 785.914766 307.78134 785.914766zM307.78134 785.914766M62.443679 540.576081l899.55778 0 0-81.775468L62.443679 458.800613 62.443679 540.576081 62.443679 540.576081zM62.443679 540.576081M307.78134 295.245583l408.889621 0 0-81.776492L307.78134 213.469092 307.78134 295.245583 307.78134 295.245583zM307.78134 295.245583M62.443679 49.908946l899.55778 0 0-81.776492L62.443679-31.867546 62.443679 49.908946 62.443679 49.908946zM62.443679 49.908946"  horiz-adv-x="1024" />

    
    <glyph glyph-name="xieti" unicode="&#59123;" d="M897.948 834.255l0-64.322-128.65 0L447.674-1.933l128.65 0 0-64.32L126.052-66.253l0 64.32 128.65 0 321.622 771.866-128.65 0L447.674 834.255 897.948 834.255z"  horiz-adv-x="1024" />

    
    <glyph glyph-name="tuxiang" unicode="&#58887;" d="M870.4 720H153.6c-49.472 0-89.6-40.128-89.6-89.6v-492.736c0-49.472 40.128-89.6 89.6-89.6h716.8c49.472 0 89.6 40.128 89.6 89.6V630.4c0 49.472-40.128 89.6-89.6 89.6z m0-492.8h-44.8s-29.696 65.792-89.6 89.6-134.4-89.6-134.4-89.6-66.56 71.808-134.4 224S153.6 272 153.6 272V630.4h716.8v-403.2zM668.8 406.4c37.056 0 67.2 30.144 67.2 67.264 0 37.056-30.144 67.2-67.2 67.2-37.12-0.064-67.2-30.208-67.2-67.264 0-37.12 30.08-67.2 67.2-67.2z"  horiz-adv-x="1024" />

    
    <glyph glyph-name="zhixianceliang" unicode="&#58913;" d="M12.994965 446.59257 1017.717923 446.59257 1017.717923 387.240811 12.994965 387.240811Z"  horiz-adv-x="1024" />

    
    <glyph glyph-name="shuipingjuzhong" unicode="&#59221;" d="M563.2 486.4 563.2 281.6 870.355354 281.6C898.656973 281.6 921.6 258.88171 921.6 230.409856L921.6 76.790144C921.6 48.51861 898.834893 25.6 870.355354 25.6L563.2 25.6 563.2-77.219681C563.2-105.264876 540.474112-128 512-128 483.723008-128 460.8-104.688353 460.8-77.219681L460.8 25.6 153.644646 25.6C125.343027 25.6 102.4 48.31829 102.4 76.790144L102.4 230.409856C102.4 258.68139 125.165107 281.6 153.644646 281.6L460.8 281.6 460.8 486.4 256.126618 486.4C227.779738 486.4 204.8 509.11829 204.8 537.590144L204.8 691.209856C204.8 719.48139 228.134963 742.4 256.126618 742.4L460.8 742.4 460.8 845.219681C460.8 873.264876 483.525888 896 512 896 540.276992 896 563.2 872.688353 563.2 845.219681L563.2 742.4 767.873382 742.4C796.220262 742.4 819.2 719.68171 819.2 691.209856L819.2 537.590144C819.2 509.31861 795.865037 486.4 767.873382 486.4L563.2 486.4Z"  horiz-adv-x="1024" />

    
    <glyph glyph-name="suoxiao" unicode="&#58903;" d="M945.152 28.16l-206.336 206.336c49.664 64 79.36 143.872 79.36 230.912 0 207.872-168.448 376.32-376.832 376.32-207.872 0-376.32-168.448-376.32-376.32s168.448-376.832 376.32-376.832c87.04 0 167.424 29.696 230.912 79.36l206.336-206.336c9.216-9.216 20.992-13.824 33.28-13.824s24.064 4.608 33.28 13.824c18.432 18.432 18.432 48.64 0 66.56zM158.72 465.92c0 155.648 126.464 282.624 282.624 282.624 155.648 0 282.624-126.464 282.624-282.624 0-155.648-126.464-282.624-282.624-282.624-156.16 0-282.624 126.976-282.624 282.624zM302.592 506.368c-22.528 0-40.448-17.92-40.448-39.936 0-22.528 17.92-40.448 40.448-40.448h276.992c22.528 0 40.448 17.92 40.448 40.448 0 22.016-17.92 39.936-40.448 39.936h-276.992z"  horiz-adv-x="1024" />

    
    <glyph glyph-name="dayinyulan" unicode="&#59128;" d="M589.794869-58.770976c167.02965 0 409.166506-1.015821 409.166506-1.015822V131.726605h121.216538c22.297497 0 40.405994 18.081043 40.405995 40.336635V661.148737c0 22.275822-18.108498 40.33519-40.405995 40.33519h-121.216538V828.577202H432.261632l0.219637-126.915542h-118.999938c-22.294607 0-41.824965-24.332029-41.824965-46.604961v-482.993459c0-22.255592 18.111388-40.33808 40.405994-40.33808h121.216538v-62.165958l30.217436-27.620806 126.298535-100.709372zM433.278898 164.955381h-35.319662V447.295933h35.319662V164.955381m156.539091-80.668936h-123.251071V447.295933h484.870488v-484.013614H589.796314l0.021675 121.004126zM958.556826 689.301295H473.687783V766.921322h484.870488l-0.001445-77.620027m75.728546-524.345914h-35.322552V447.295933h35.322552V164.955381m45.487992 363.008043h-80.810544v80.670381h80.810544V527.963424M933.012457 44.019169l-108.526718 108.505043c22.257037 29.071566 35.494505 65.414275 35.494505 104.839127 0 95.377394-77.309356 172.65496-172.65496 172.65496-95.347049 0-172.653515-77.277566-172.653515-172.65496 0-95.319595 77.306466-172.65207 172.653515-172.65207 35.126035 0 67.795603 10.505009 95.062389 28.528253l109.934129-109.909564c11.24195-11.24195 29.451596-11.24195 40.690655 0 11.243395 11.23906 11.243395 29.448706 0 40.689211zM572.222459 257.361894c0 63.595044 51.510671 115.102825 115.102825 115.102825 63.5647 0 115.102825-51.507781 115.102825-115.102825 0-63.566145-51.538125-115.10138-115.102825-115.10138-63.592154 0-115.102825 51.535236-115.102825 115.10138z"  horiz-adv-x="1433" />

    
    <glyph glyph-name="baocun" unicode="&#58881;" d="M867.113-63.333H156.918c-1.618 0.566-3.221 1.366-4.881 1.659-41.102 7.357-68.479 30.927-82.418 70.119-2.397 6.746-3.636 13.932-5.424 20.918V739.559c0.566 1.64 1.343 3.217 1.661 4.897 8.43 45.137 35.237 73.145 79.326 84.985 3.891 1.049 7.821 1.893 11.735 2.835h610.47c25.42-5.609 45.373-20.772 63.475-38.117a3147.936 3147.936 0 0 0 88.495-88.242c18.185-18.859 34.521-39.421 40.447-66.056v-610.493c-0.562-1.621-1.342-3.198-1.659-4.882-8.432-45.158-35.214-73.14-79.328-85.005-3.865-1.033-7.799-1.891-11.704-2.814m-355.046 34.271c101.734 0 203.456-0.026 305.172 0.038 25.884 0 39.53 13.601 39.53 39.212 0.02 111.641 0.02 223.281 0 334.903 0 25.712-13.754 39.591-39.212 39.591-203.754 0.021-407.483 0.021-611.212 0-25.058-0.023-39.084-13.921-39.084-38.853-0.044-111.915-0.044-223.852 0.018-335.767 0-4.056 0.107-8.221 1.03-12.131 4.189-17.703 17.472-26.953 38.601-26.973 101.721-0.044 203.437-0.02 305.157-0.02m-17.559 516.556h217.689c27.881 0.02 41.297 13.37 41.297 41.164 0.02 76.064 0.02 152.116 0 228.182 0 27.983-13.143 41.145-41.189 41.145-145.131 0.02-290.247 0.02-435.36 0-27.48 0-40.914-13.288-40.934-40.618-0.064-76.343-0.064-152.683 0-229.047 0.02-27.309 13.601-40.807 40.829-40.807 72.554-0.019 145.115-0.019 217.668-0.019m87.338 275.273h101.172v-239.57H581.846v239.57m0 0z"  horiz-adv-x="1024" />

    
    <glyph glyph-name="duiqi" unicode="&#58918;" d="M20.6 861.6h982.8v-111.4H20.6zM202.014 611.636v-548.6h-111.4v548.6zM444.868 611.646v-661.4h-111.4v661.4zM687.676 611.498v-548.6h-111.4v548.6zM930.53 611.506v-661.4h-111.4v661.4z"  horiz-adv-x="1024" />

    
    <glyph glyph-name="duiqi-copy" unicode="&#58919;" d="M34.4-107.4v982.801h111.4v-982.801zM284.364 74.014h548.6v-111.4h-548.6zM284.353 316.868h661.399v-111.4h-661.399zM284.502 559.676h548.6v-111.4h-548.6zM284.494 802.529h661.399v-111.4h-661.399z"  horiz-adv-x="1024" />

    
    <glyph glyph-name="duiqi-copy1" unicode="&#58920;" d="M1003.4-93.6h-982.801v111.4h982.801zM821.986 156.364v548.6h111.4v-548.6zM579.132 156.353v661.399h111.4v-661.399zM336.324 156.502v548.6h111.4v-548.6zM93.471 156.494v661.399h111.4v-661.399z"  horiz-adv-x="1024" />

    
    <glyph glyph-name="duiqi-copy-copy" unicode="&#58921;" d="M989.6 875.4v-982.801h-111.4v982.801zM739.636 693.986h-548.6v111.4h548.6zM739.647 451.132h-661.399v111.4h661.399zM739.498 208.324h-548.6v111.4h548.6zM739.506-34.529h-661.399v111.4h661.399z"  horiz-adv-x="1024" />

    
    <glyph glyph-name="huifu1" unicode="&#58987;" d="M960.2 59.1s-84 472.5-520.9 472.5V710.9L64 385l375.3-304.2V287.2c235.2 0 397.7-16.3 520.9-228.1z"  horiz-adv-x="1024" />

    
    <glyph glyph-name="zitiyanse" unicode="&#59015;" d="M0 56.32v-153.6h665.6l153.6 153.6H0z m768-153.6H1024v256l-256-256zM822.613333 83.626667h-129.706666l-105.813334 245.76H266.24l-102.4-245.76H30.72L368.64 865.28h119.466667l334.506666-781.653333z m-273.066666 354.986666l-119.466667 262.826667-119.466667-262.826667h238.933334z"  horiz-adv-x="1024" />

    
    <glyph glyph-name="youduiqi" unicode="&#58917;" d="M1024 793.6v-85.333333H0V793.6h1024z m0-341.333333v-85.333334H0V452.266667h1024z m0-341.333334v-85.333333h-455.111111v85.333333h455.111111z"  horiz-adv-x="1024" />

    
    <glyph glyph-name="zuoduiqi" unicode="&#58922;" d="M0 793.6h1024v-85.333333H0V793.6z m0-341.333333h1024v-85.333334H0V452.266667z m0-341.333334h455.111111v-85.333333H0v85.333333z"  horiz-adv-x="1024" />

    
    <glyph glyph-name="kongbaiwenjian" unicode="&#58912;" d="M179.003 830.711h407.451c9.256 0 18.088-4.12 23.941-10.009l248.88-248.65c6.836-6.542 9.78-15.372 9.78-24.17v-518.758c0-25.088-10.302-48.573-26.853-64.862v-0.292l-0.949-0.755c-16.615-16.388-39.087-26.297-64.175-26.297H179.003c-24.923 0-47.885 10.467-64.697 27.053h-0.23c-16.844 16.581-26.853 39.771-26.853 65.154v709.15c0 26.299 10.008 49.26 26.854 65.352 16.55 16.551 40.003 27.084 64.926 27.084z m621.462-303.535H644.053c-21.458 0-41.443 8.994-55.605 22.96l-0.982 1.179c-13.214 14.194-21.98 33.165-21.98 54.165V761.663H179.004c-6.117 0-12.232-2.191-16.158-6.574-4.383-4.188-7-10.042-7-16.813v-709.153c0-6.347 2.618-12.004 7-16.616h-0.262c4.187-3.86 10.303-6.575 16.42-6.575h598.074c6.575 0 12.43 2.714 16.583 6.575h0.262c3.893 4.612 6.543 10.269 6.543 16.616V527.176z m-34.932 41.277l-158.8 158.505V605.48c0-9.486 3.662-18.513 10.008-25.415l1.014-0.687c6.541-6.803 16.027-10.925 26.298-10.925h121.48z"  horiz-adv-x="1024" />

    
    <glyph glyph-name="xiahuaxian" unicode="&#58899;" d="M170.666667-128h682.666666v85.333333h-682.666666zM708.266667 896v-512c0-51.2-8.533333-102.4-25.6-128-34.133333-59.733333-93.866667-85.333333-179.2-85.333333-76.8 0-128 25.6-153.6 76.8-25.6 34.133333-34.133333 85.333333-34.133334 136.533333v512h-145.066666v-460.8c0-102.4 17.066667-179.2 42.666666-230.4 51.2-102.4 153.6-153.6 298.666667-153.6s247.466667 51.2 298.666667 153.6c25.6 51.2 42.666667 136.533333 42.666666 230.4v460.8h-145.066666z"  horiz-adv-x="1024" />

    
    <glyph glyph-name="wenben" unicode="&#59025;" d="M832.534 19l-57.601 139.173h-166.55L554.092 19h-89.388l189.72 459.389h70.399L927 19h-94.466zM690.347 388.049l-65.266-169.968h131.716l-66.45 169.968zM438.605 19H340.71V662.855H97V749h586.295v-86.145h-244.69V19z"  horiz-adv-x="1024" />

    
    <glyph glyph-name="fangda" unicode="&#59096;" d="M980.992-17.92l-234.496 234.496c50.688 66.56 81.408 150.016 81.408 240.64C827.392 676.864 649.728 855.04 430.08 855.04S32.768 676.864 32.768 457.728s177.664-397.312 397.312-397.312c91.136 0 174.592 30.72 241.664 81.92L906.24-92.16c19.968-19.968 52.736-19.968 72.704 0l2.048 2.048c19.968 19.968 19.968 52.224 0 72.192zM429.056 160.256c-164.352 0-297.984 133.632-297.984 297.984s133.632 297.984 297.984 297.984S727.04 622.592 727.04 458.24c0.512-164.352-133.12-297.984-297.984-297.984zM589.312 479.232c-10.752 10.752-23.552 10.24-23.552 10.24H465.408V589.824s0.512 12.8-10.24 23.552c0 0-8.192 8.192-21.504 8.192 0 0-10.752 1.024-20.48-8.192 0 0-10.24-7.168-10.24-23.04v-100.352H303.616c-12.288 1.024-23.552-9.728-23.552-9.728-8.704-8.704-8.704-22.528-8.704-22.528 0-12.288 9.216-19.968 9.216-19.968 11.264-11.264 22.528-10.24 22.528-10.24h100.352v-100.352s-1.024-11.264 10.24-22.528c0 0 8.192-9.216 19.968-9.216 0 0 13.824 0 22.528 8.704 0 0 11.264 11.264 9.728 23.552V427.008h100.352c15.36 0 23.04 10.24 23.04 10.24 9.728 9.728 8.192 20.48 8.192 20.48 0 13.312-8.192 21.504-8.192 21.504z"  horiz-adv-x="1024" />

    
    <glyph glyph-name="tuxing" unicode="&#58892;" d="M940.467 61.881h-518.203c-7.646 0-14.766 4.043-18.633 10.723s-3.867 14.854 0 21.533l259.102 449.033c3.867 6.68 10.987 10.722 18.633 10.722s14.766-4.043 18.633-10.722l259.102-449.033c3.867-6.68 3.867-14.854 0-21.533-3.779-6.592-10.898-10.723-18.633-10.723zM459.529 104.947h443.76l-221.924 384.434-221.836-384.434zM872.879 745.846c-51.152 51.153-119.18 79.365-191.513 79.365s-140.362-28.213-191.513-79.365c-51.153-51.153-79.278-119.268-79.278-191.602 0-13.359 0.967-26.543 2.813-39.463h-222.188c-71.279 0-129.2-57.92-129.2-129.2v-313.594c0-71.279 57.92-129.2 129.2-129.2h313.418c71.279 0 129.2 57.92 129.2 129.2v215.508c15.557-2.813 31.465-4.219 47.636-4.219 72.334 0 140.362 28.213 191.513 79.365 51.153 51.153 79.278 119.268 79.278 191.602 0 72.334-28.213 140.45-79.365 191.602zM590.75 71.988c0-47.549-38.672-86.221-86.221-86.221h-313.33c-47.461 0-86.221 38.672-86.221 86.221v313.594c0 47.549 38.672 86.221 86.221 86.221h232.119c13.008-40.781 35.596-78.047 66.621-109.161 29.004-29.004 63.369-50.625 100.898-63.896v-226.758h-0.088zM590.75 345.152c-55.547 24.17-99.756 69.873-121.729 126.651h35.596c47.549 0 86.221-38.672 86.221-86.221l-0.088-40.43zM681.365 326.344c-16.348 0-32.256 1.758-47.637 5.010v54.229c0 71.279-57.92 129.2-129.2 129.2h-47.637c-2.286 12.833-3.428 26.016-3.428 39.463 0 125.684 102.217 227.988 227.813 227.988 125.771 0 227.988-102.305 227.988-227.988 0-125.684-102.217-227.901-227.901-227.901z"  horiz-adv-x="1024" />

    
    <glyph glyph-name="dayin" unicode="&#58970;" d="M257.728 830.272h511.488v-127.296h62.4V830.72a64 64 0 0 1-63.36 64.448H257.152c-35.2 0-64.32-29.248-64.32-64.448v-127.68h64.832V830.272zM959.808 638.08H65.6c-35.2 0-64.832-27.712-64.832-62.912v-319.36c0-35.328 29.632-64.256 64.832-64.256h127.296v-255.104a64.64 64.64 0 0 1 64.32-64.256h510.976c35.328 0 63.36 28.992 63.36 64.256v255.104h128.256c35.328 0 63.936 28.928 63.936 64.256v319.36a63.04 63.04 0 0 1-63.808 62.976h-0.128zM769.28-62.848H257.728V383.68h511.488v-446.592zM896 447.36a63.808 63.808 0 1 0 0 127.68 63.808 63.808 0 0 0 0-127.68zM320.128 318.784h256.96v-62.4H320.128v62.4zM320.128 191.552h384.256v-64.896H320.128zM320.128 64.32h384.256v-64.896H320.128z"  horiz-adv-x="1024" />

    
    <glyph glyph-name="fenyeshangyiye1" unicode="&#58932;" d="M177.4752666666667 827.2978c0 5.401600000000002 2.8621000000000008 10.640400000000003 7.921700000000003 13.440000000000003 5.061600000000002 2.7996000000000008 11.019300000000001 2.4453000000000005 15.595500000000001-0.42600000000000104L875.5780666666667 417.4162c4.3295-2.7126 7.199700000000002-7.530500000000002 7.1997000000000035-13.014000000000003s-2.8733000000000004-10.301400000000003-7.1987000000000005-13.014000000000001L200.99346666666668-31.508499999999913c-4.5773-2.8703-10.533900000000003-3.224600000000001-15.595500000000001-0.42600000000000104-5.059600000000001 2.800600000000001-7.921700000000003 8.038400000000003-7.921700000000003 13.440000000000003L177.47626666666673 827.2977920000002 177.4752666666667 827.2978z"  horiz-adv-x="1024" />

    
    <glyph glyph-name="delete2" unicode="&#59301;" d="M512 275.456l253.3376-253.3376a76.6976 76.6976 0 1 1 108.544 108.544L620.6464 384l253.2352 253.3376a76.6976 76.6976 0 1 1-108.544 108.544L512 492.6464 258.6624 745.8815999999999a76.6976 76.6976 0 1 1-108.544-108.544L403.3536 384 150.1184 130.66240000000005a76.6976 76.6976 0 1 1 108.544-108.544L512 275.35360000000003z"  horiz-adv-x="1024" />

    
    <glyph glyph-name="juzhong" unicode="&#58904;" d="M772.2 708.5H252.4c-37.8 0-68.4-30.6-68.4-68.4v-519.8c0-37.8 30.6-68.4 68.4-68.4h136.8v0.1h383c37.8 0 68.4 30.6 68.4 68.4V640.1c0 37.8-30.6 68.4-68.4 68.4zM635.3 298.2c0-22.7-18.4-41-41-41H430.2c-22.7 0-41 18.4-41 41V462.3c0 22.7 18.4 41 41 41h164.1c22.7 0 41-18.4 41-41v-164.1zM594.4 476H430.2c-7.4 0-13.7-6.3-13.7-13.7v-164.1c0-7.4 6.3-13.7 13.7-13.7h164.1c7.4 0 13.7 6.3 13.7 13.7V462.3c0 7.4-6.2 13.7-13.6 13.7z"  horiz-adv-x="1024" />

    
    <glyph glyph-name="xiantiao-xiexian1" unicode="&#58882;" d="M3.821 848.283l45.216 45.293 970.894-969.248-45.216-45.293z"  horiz-adv-x="1024" />

    
    <glyph glyph-name="shuipingjuzhong1" unicode="&#59111;" d="M1084.89697 383.224242c0-29.220202-24.048485-53.010101-52.49293-53.010101h-954.181818c-28.961616 0-52.492929 23.531313-52.492929 53.010101 0 29.220202 24.048485 53.010101 52.492929 53.010101h954.052525c29.090909 0 52.622222-23.531313 52.622223-53.010101zM396.412121 806.917172c29.220202 0 53.010101-23.531313 53.010101-53.010101v-741.365657c0-29.220202-23.531313-53.010101-53.010101-53.010101H237.640404c-29.220202 0-53.010101 23.531313-53.010101 53.010101V753.907071c0 29.220202 23.531313 53.010101 53.010101 53.010101h158.771717zM873.115152 701.026263c29.220202 0 53.010101-24.177778 53.010101-53.139394v-529.325253c0-29.349495-23.531313-53.139394-53.010101-53.139394H714.214141c-29.220202 0-53.010101 24.177778-53.010101 53.139394V647.886869c0 29.349495 23.531313 53.139394 53.010101 53.139394h158.901011z"  horiz-adv-x="1148" />

    
    <glyph glyph-name="erweima" unicode="&#58883;" d="M62.996776 411.938306l423.162696 0L486.159472 835.099978 62.996776 835.099978 62.996776 411.938306zM168.788218 729.30956l211.580836 0 0-211.580836L168.788218 517.728724 168.788218 729.30956zM539.055193 835.099978l0-423.162696 423.162696 0L962.217888 835.099978 539.055193 835.099978zM856.426447 517.728724L644.845611 517.728724 644.845611 729.30956l211.580836 0L856.426447 517.728724zM221.682915 570.623421l105.790418 0L327.473333 676.414863 221.682915 676.414863 221.682915 570.623421zM62.996776-64.12011099999995l423.162696 0L486.159472 359.04258500000003 62.996776 359.04258500000003 62.996776-64.12011099999995zM168.788218 253.252167l211.580836 0 0-211.580836L168.788218 41.67133100000001 168.788218 253.252167zM803.531749 676.414863L697.740308 676.414863l0-105.790418 105.790418 0L803.530726 676.414863zM539.055193-64.12011099999995l105.790418 0L644.845611 41.67030799999998 539.055193 41.67030799999998 539.055193-64.12011099999995zM644.845611 253.252167l0-211.580836 105.790418 0L750.636029 253.252167 644.845611 253.252167zM856.426447 41.67030799999998L750.636029 41.67030799999998 750.636029-64.12011099999995l211.580836 0L962.216865 147.46174900000005 856.426447 147.46174900000005 856.426447 41.67030799999998zM856.426447 253.252167l105.790418 0L962.216865 359.04258500000003 856.426447 359.04258500000003 856.426447 253.252167zM539.055193 359.04258500000003l0-105.790418 105.790418 0L644.845611 359.04258500000003 539.055193 359.04258500000003zM221.682915 94.56602799999996l105.790418 0L327.473333 200.356446 221.682915 200.356446 221.682915 94.56602799999996z"  horiz-adv-x="1024" />

    
    <glyph glyph-name="rfid" unicode="&#59133;" d="M413.668874 303.752759H361.677704v11.302429c0 4.520971-4.520971 13.562914-11.302428 31.646799-11.302428 29.386313-18.083885 29.386313-27.125828 29.386313h-27.125828v-38.428256c0-9.041943 0-15.8234 2.260486-22.604856l2.260486-13.562914h-45.209713l2.260485 13.562914c2.260486 6.781457 2.260486 11.302428 2.260486 22.604856v113.024283c0 9.041943 0 15.8234-2.260486 22.604856l-2.260485 13.562914h81.377483c36.16777 0 58.772627-20.344371 58.772627-51.99117 0-15.8234-4.520971-29.386313-15.8234-38.428256-2.260486-2.260486-4.520971-4.520971-6.781457-4.520971 2.260486-4.520971 6.781457-9.041943 9.041943-13.562914 4.520971-9.041943 11.302428-20.344371 15.8234-36.167771 4.520971-6.781457 6.781457-13.562914 9.041942-18.083885l6.781457-20.344371z m-117.545254 108.503312h38.428256c6.781457 0 11.302428 2.260486 15.8234 6.781457 2.260486 2.260486 4.520971 4.520971 4.520971 13.562914 0 9.041943-2.260486 15.8234-18.083885 15.823399h-40.688742v-36.16777zM452.09713 303.752759h-47.470198l2.260485 13.562914c0 6.781457 2.260486 11.302428 2.260486 22.604857v113.024282c0 9.041943 0 15.8234-2.260486 22.604857l-2.260485 13.562914H497.306843c11.302428 0 15.8234 0 22.604857 2.260485l13.562914 2.260486V443.90287l-13.562914 2.260485c-6.781457 0-11.302428 2.260486-22.604857 2.260486h-49.730684v-31.646799h38.428256c9.041943 0 15.8234 0 22.604857 2.260486l13.562913 2.260485v-45.209713l-13.562913 2.260486c-6.781457 0-11.302428 2.260486-22.604857 2.260486h-38.428256v-40.688742c0-11.302428 0-15.8234 2.260486-22.604857l2.260485-13.562914zM578.684327 303.752759h-47.470199l2.260486 13.562914c2.260486 6.781457 2.260486 11.302428 2.260485 22.604857v113.024282c0 9.041943 0 13.562914-2.260485 22.604857l-2.260486 13.562914h47.470199l-2.260486-13.562914c-2.260486-6.781457-2.260486-13.562914-2.260486-22.604857v-113.024282c0-9.041943 0-15.8234 2.260486-22.604857l2.260486-13.562914zM585.465784 301.492274l2.260485 13.562914c2.260486 6.781457 2.260486 13.562914 2.260486 22.604856v113.024283c0 9.041943 0 13.562914-2.260486 22.604856l-2.260485 13.562914H655.540839c54.251656 0 85.898455-33.907285 85.898455-90.419426 0-29.386313-9.041943-54.251656-24.865343-70.075055-13.562914-13.562914-33.907285-22.604857-58.772626-22.604857h-58.772627l-13.562914-2.260485z m42.949227 38.428256H655.540839c13.562914 0 24.865342 4.520971 31.646799 11.302428 9.041943 9.041943 13.562914 24.865342 13.562914 42.949227 0 18.083885-4.520971 33.907285-13.562914 42.949228-6.781457 6.781457-18.083885 11.302428-31.646799 11.302428h-29.386314v-108.503311zM822.816777-125.739514H153.713024c-83.637969 0-151.452539 67.81457-151.452538 151.452538V742.286976C2.260486 825.924945 70.075055 893.739514 153.713024 893.739514h716.573952c83.637969 0 151.452539-67.81457 151.452538-151.452538v-716.573952c0-6.781457-4.520971-13.562914-9.041942-18.083885L836.379691-121.218543c-2.260486-4.520971-6.781457-4.520971-13.562914-4.520971zM153.713024 848.529801c-58.772627 0-106.242826-47.470199-106.242825-106.242825v-716.573952c0-58.772627 47.470199-106.242826 106.242825-106.242825h662.322296l160.494481 117.545254V742.286976c0 58.772627-47.470199 106.242826-106.242825 106.242825H153.713024zM766.304636-35.320088H219.267108c-70.075055 0-126.587196 56.512141-126.587196 126.587196V676.732892c0 70.075055 56.512141 126.587196 126.587196 126.587196h585.465784c70.075055 0 126.587196-56.512141 126.587196-126.587196v-585.465784c0-6.781457-4.520971-13.562914-9.041942-18.083885L779.86755-30.799117c-4.520971-4.520971-9.041943-4.520971-13.562914-4.520971zM219.267108 758.110375c-45.209713 0-81.377483-36.16777-81.377483-81.377483v-585.465784c0-45.209713 36.16777-81.377483 81.377483-81.377483h537.995585l128.847682 92.679911V676.732892c0 45.209713-36.16777 81.377483-81.377483 81.377483H219.267108zM709.792494 50.578366H284.821192c-56.512141 0-103.98234 47.470199-103.98234 103.98234V611.178808C180.838852 667.690949 228.309051 715.161148 284.821192 715.161148h456.618102c56.512141 0 103.98234-47.470199 103.98234-103.98234v-205.704194c0-13.562914-9.041943-22.604857-22.604857-22.604857s-22.604857 9.041943-22.604856 22.604857v205.704194c0 31.646799-27.125828 58.772627-58.772627 58.772627H284.821192c-31.646799 0-58.772627-27.125828-58.772627-58.772627v-456.618102c0-31.646799 27.125828-58.772627 58.772627-58.772627h427.231788c13.562914 0 22.604857-9.041943 22.604857-22.604856s-11.302428-22.604857-24.865343-22.604857zM822.816777 378.348786H768.565121c-13.562914 0-22.604857 9.041943-22.604856 22.604856s9.041943 22.604857 22.604856 22.604857h54.251656c13.562914 0 22.604857-9.041943 22.604857-22.604857s-11.302428-22.604857-22.604857-22.604856zM716.573951 52.838852c-6.781457 0-13.562914 2.260486-18.083885 9.041943-6.781457 11.302428-4.520971 24.865342 4.520972 31.646799l97.200883 70.075055c11.302428 6.781457 24.865342 4.520971 31.646799-4.520971 6.781457-11.302428 4.520971-24.865342-4.520972-31.646799l-97.200883-70.075056c-4.520971-4.520971-9.041943-4.520971-13.562914-4.520971z"  horiz-adv-x="1024" />

    


  </font>
</defs>
</svg>
